<svg width="84" height="21" viewBox="0 0 84 21" fill="none" xmlns="http://www.w3.org/2000/svg">
<rect x="0.5" y="1" width="83" height="19" rx="4.5" fill="#B8EF81" fill-opacity="0.3"/>
<rect x="0.5" y="1" width="83" height="19" rx="4.5" stroke="#B8EF81"/>
<path d="M13.2074 8.6108H11.8778C11.8267 8.3267 11.7315 8.0767 11.5923 7.8608C11.4531 7.64489 11.2827 7.46165 11.081 7.31108C10.8793 7.16051 10.6534 7.04687 10.4034 6.97017C10.1563 6.89347 9.89347 6.85511 9.61506 6.85511C9.11222 6.85511 8.66193 6.98153 8.2642 7.23438C7.86932 7.48722 7.55682 7.85795 7.3267 8.34659C7.09943 8.83523 6.9858 9.43182 6.9858 10.1364C6.9858 10.8466 7.09943 11.446 7.3267 11.9347C7.55682 12.4233 7.87074 12.7926 8.26847 13.0426C8.66619 13.2926 9.11364 13.4176 9.6108 13.4176C9.88636 13.4176 10.1477 13.3807 10.3949 13.3068C10.6449 13.2301 10.8707 13.1179 11.0724 12.9702C11.2741 12.8224 11.4446 12.642 11.5838 12.429C11.7259 12.2131 11.8239 11.9659 11.8778 11.6875L13.2074 11.6918C13.1364 12.1207 12.9986 12.5156 12.794 12.8764C12.5923 13.2344 12.3324 13.544 12.0142 13.8054C11.6989 14.0639 11.3381 14.2642 10.9318 14.4062C10.5256 14.5483 10.0824 14.6193 9.60227 14.6193C8.84659 14.6193 8.1733 14.4403 7.58239 14.0824C6.99148 13.7216 6.52557 13.206 6.18466 12.5355C5.84659 11.8651 5.67756 11.0653 5.67756 10.1364C5.67756 9.20455 5.84801 8.40483 6.18892 7.73722C6.52983 7.06676 6.99574 6.55256 7.58665 6.1946C8.17756 5.83381 8.84943 5.65341 9.60227 5.65341C10.0653 5.65341 10.4972 5.72017 10.8977 5.85369C11.3011 5.98437 11.6634 6.17756 11.9844 6.43324C12.3054 6.68608 12.571 6.99574 12.7812 7.36222C12.9915 7.72585 13.1335 8.14205 13.2074 8.6108ZM17.4379 14.6321C16.8242 14.6321 16.2887 14.4915 15.8313 14.2102C15.3739 13.929 15.0188 13.5355 14.766 13.0298C14.5131 12.5241 14.3867 11.9332 14.3867 11.2571C14.3867 10.5781 14.5131 9.98437 14.766 9.47585C15.0188 8.96733 15.3739 8.57244 15.8313 8.29119C16.2887 8.00994 16.8242 7.86932 17.4379 7.86932C18.0515 7.86932 18.587 8.00994 19.0444 8.29119C19.5018 8.57244 19.8569 8.96733 20.1097 9.47585C20.3626 9.98437 20.489 10.5781 20.489 11.2571C20.489 11.9332 20.3626 12.5241 20.1097 13.0298C19.8569 13.5355 19.5018 13.929 19.0444 14.2102C18.587 14.4915 18.0515 14.6321 17.4379 14.6321ZM17.4421 13.5625C17.8398 13.5625 18.1694 13.4574 18.4308 13.2472C18.6921 13.0369 18.8853 12.7571 19.0103 12.4077C19.1381 12.0582 19.2021 11.6733 19.2021 11.2528C19.2021 10.8352 19.1381 10.4517 19.0103 10.1023C18.8853 9.75 18.6921 9.46733 18.4308 9.25426C18.1694 9.04119 17.8398 8.93466 17.4421 8.93466C17.0415 8.93466 16.7092 9.04119 16.445 9.25426C16.1836 9.46733 15.989 9.75 15.8612 10.1023C15.7362 10.4517 15.6737 10.8352 15.6737 11.2528C15.6737 11.6733 15.7362 12.0582 15.8612 12.4077C15.989 12.7571 16.1836 13.0369 16.445 13.2472C16.7092 13.4574 17.0415 13.5625 17.4421 13.5625ZM21.9112 14.5V7.95455H23.1342V9.01989H23.2152C23.3516 8.65909 23.5746 8.37784 23.8842 8.17614C24.1939 7.97159 24.5646 7.86932 24.9964 7.86932C25.4339 7.86932 25.8004 7.97159 26.0959 8.17614C26.3942 8.38068 26.6143 8.66193 26.7564 9.01989H26.8246C26.9808 8.67045 27.2294 8.39205 27.5703 8.18466C27.9112 7.97443 28.3175 7.86932 28.7891 7.86932C29.3828 7.86932 29.8672 8.0554 30.2422 8.42756C30.62 8.79972 30.8089 9.3608 30.8089 10.1108V14.5H29.5348V10.2301C29.5348 9.78693 29.4141 9.46591 29.1726 9.26705C28.9311 9.06818 28.6428 8.96875 28.3075 8.96875C27.8928 8.96875 27.5703 9.09659 27.3402 9.35227C27.1101 9.60511 26.995 9.9304 26.995 10.3281V14.5H25.7251V10.1491C25.7251 9.79403 25.6143 9.50852 25.3928 9.29261C25.1712 9.0767 24.8828 8.96875 24.5277 8.96875C24.2862 8.96875 24.0632 9.03267 23.8587 9.16051C23.657 9.28551 23.4936 9.46023 23.3686 9.68466C23.2464 9.90909 23.1854 10.169 23.1854 10.4645V14.5H21.9112ZM32.5167 16.9545V7.95455H33.761V9.01562H33.8675C33.9414 8.87926 34.0479 8.72159 34.1871 8.54261C34.3263 8.36364 34.5195 8.20739 34.7667 8.07386C35.0138 7.9375 35.3406 7.86932 35.7468 7.86932C36.2752 7.86932 36.7468 8.00284 37.1616 8.26989C37.5763 8.53693 37.9016 8.92187 38.1374 9.42472C38.3761 9.92756 38.4954 10.5327 38.4954 11.2401C38.4954 11.9474 38.3775 12.554 38.1417 13.0597C37.9059 13.5625 37.582 13.9503 37.1701 14.223C36.7582 14.4929 36.288 14.6278 35.7596 14.6278C35.3619 14.6278 35.0366 14.5611 34.7837 14.4276C34.5337 14.294 34.3377 14.1378 34.1957 13.9588C34.0536 13.7798 33.9442 13.6207 33.8675 13.4815H33.7908V16.9545H32.5167ZM33.7653 11.2273C33.7653 11.6875 33.832 12.0909 33.9656 12.4375C34.0991 12.7841 34.2923 13.0554 34.5451 13.2514C34.7979 13.4446 35.1076 13.5412 35.4741 13.5412C35.8548 13.5412 36.1729 13.4403 36.4286 13.2386C36.6843 13.0341 36.8775 12.7571 37.0082 12.4077C37.1417 12.0582 37.2085 11.6648 37.2085 11.2273C37.2085 10.7955 37.1431 10.4077 37.0124 10.0639C36.8846 9.72017 36.6914 9.44886 36.4329 9.25C36.1772 9.05114 35.8576 8.9517 35.4741 8.9517C35.1048 8.9517 34.7923 9.04687 34.5366 9.23722C34.2837 9.42756 34.092 9.69318 33.9613 10.0341C33.8306 10.375 33.7653 10.7727 33.7653 11.2273ZM41.1971 5.77273V14.5H39.9229V5.77273H41.1971ZM45.7322 14.6321C45.0874 14.6321 44.532 14.4943 44.0661 14.2188C43.603 13.9403 43.245 13.5497 42.9922 13.0469C42.7422 12.5412 42.6172 11.9489 42.6172 11.2699C42.6172 10.5994 42.7422 10.0085 42.9922 9.49716C43.245 8.9858 43.5973 8.58665 44.049 8.29972C44.5036 8.01278 45.0348 7.86932 45.6428 7.86932C46.0121 7.86932 46.37 7.9304 46.7166 8.05256C47.0632 8.17472 47.3743 8.36648 47.6499 8.62784C47.9254 8.8892 48.1428 9.22869 48.3018 9.64631C48.4609 10.0611 48.5405 10.5653 48.5405 11.1591V11.6108H43.3374V10.6562H47.2919C47.2919 10.321 47.2237 10.0241 47.0874 9.76562C46.951 9.50426 46.7592 9.2983 46.5121 9.14773C46.2678 8.99716 45.9808 8.92188 45.6513 8.92188C45.2933 8.92188 44.9808 9.00994 44.7138 9.18608C44.4496 9.35937 44.245 9.58665 44.1001 9.8679C43.9581 10.1463 43.8871 10.4489 43.8871 10.7756V11.5213C43.8871 11.9588 43.9638 12.331 44.1172 12.6378C44.2734 12.9446 44.4908 13.179 44.7692 13.3409C45.0476 13.5 45.3729 13.5795 45.745 13.5795C45.9865 13.5795 46.2067 13.5455 46.4055 13.4773C46.6044 13.4062 46.7763 13.3011 46.9212 13.1619C47.0661 13.0227 47.1768 12.8509 47.2536 12.6463L48.4595 12.8636C48.3629 13.2187 48.1896 13.5298 47.9396 13.7969C47.6925 14.0611 47.3814 14.267 47.0064 14.4148C46.6342 14.5597 46.2095 14.6321 45.7322 14.6321ZM53.0096 7.95455V8.97727H49.4343V7.95455H53.0096ZM50.3931 6.38636H51.6673V12.5781C51.6673 12.8253 51.7042 13.0114 51.7781 13.1364C51.8519 13.2585 51.9471 13.3423 52.0636 13.3878C52.1829 13.4304 52.3121 13.4517 52.4513 13.4517C52.5536 13.4517 52.6431 13.4446 52.7198 13.4304C52.7965 13.4162 52.8562 13.4048 52.8988 13.3963L53.1289 14.4489C53.055 14.4773 52.9499 14.5057 52.8136 14.5341C52.6772 14.5653 52.5067 14.5824 52.3022 14.5852C51.967 14.5909 51.6545 14.5312 51.3647 14.4062C51.0749 14.2812 50.8406 14.0881 50.6616 13.8267C50.4826 13.5653 50.3931 13.2372 50.3931 12.8423V6.38636ZM57.1697 14.6321C56.5249 14.6321 55.9695 14.4943 55.5036 14.2188C55.0405 13.9403 54.6825 13.5497 54.4297 13.0469C54.1797 12.5412 54.0547 11.9489 54.0547 11.2699C54.0547 10.5994 54.1797 10.0085 54.4297 9.49716C54.6825 8.9858 55.0348 8.58665 55.4865 8.29972C55.9411 8.01278 56.4723 7.86932 57.0803 7.86932C57.4496 7.86932 57.8075 7.9304 58.1541 8.05256C58.5007 8.17472 58.8118 8.36648 59.0874 8.62784C59.3629 8.8892 59.5803 9.22869 59.7393 9.64631C59.8984 10.0611 59.978 10.5653 59.978 11.1591V11.6108H54.7749V10.6562H58.7294C58.7294 10.321 58.6612 10.0241 58.5249 9.76562C58.3885 9.50426 58.1967 9.2983 57.9496 9.14773C57.7053 8.99716 57.4183 8.92188 57.0888 8.92188C56.7308 8.92188 56.4183 9.00994 56.1513 9.18608C55.8871 9.35937 55.6825 9.58665 55.5376 9.8679C55.3956 10.1463 55.3246 10.4489 55.3246 10.7756V11.5213C55.3246 11.9588 55.4013 12.331 55.5547 12.6378C55.7109 12.9446 55.9283 13.179 56.2067 13.3409C56.4851 13.5 56.8104 13.5795 57.1825 13.5795C57.424 13.5795 57.6442 13.5455 57.843 13.4773C58.0419 13.4062 58.2138 13.3011 58.3587 13.1619C58.5036 13.0227 58.6143 12.8509 58.6911 12.6463L59.897 12.8636C59.8004 13.2187 59.6271 13.5298 59.3771 13.7969C59.13 14.0611 58.8189 14.267 58.4439 14.4148C58.0717 14.5597 57.647 14.6321 57.1697 14.6321Z" fill="#478524"/>
<path d="M71.75 16.2578C70.9609 16.2578 70.2188 16.1074 69.5234 15.8066C68.8281 15.5059 68.2148 15.0898 67.6836 14.5586C67.1562 14.0312 66.7422 13.4199 66.4414 12.7246C66.1406 12.0293 65.9902 11.2871 65.9902 10.498C65.9902 9.70898 66.1406 8.96875 66.4414 8.27734C66.7422 7.58203 67.1562 6.96875 67.6836 6.4375C68.2148 5.90625 68.8281 5.49219 69.5234 5.19531C70.2188 4.89453 70.959 4.74414 71.7441 4.74414C72.5332 4.74414 73.2754 4.89453 73.9707 5.19531C74.666 5.49219 75.2773 5.90625 75.8047 6.4375C76.3359 6.96875 76.752 7.58203 77.0527 8.27734C77.3574 8.96875 77.5098 9.70898 77.5098 10.498C77.5098 11.2871 77.3594 12.0293 77.0586 12.7246C76.7578 13.4199 76.3418 14.0312 75.8105 14.5586C75.2793 15.0898 74.666 15.5059 73.9707 15.8066C73.2793 16.1074 72.5391 16.2578 71.75 16.2578ZM71.1406 13.2402C71.3594 13.2402 71.5352 13.1387 71.668 12.9355L74.2578 8.92188C74.3008 8.85938 74.3359 8.79492 74.3633 8.72852C74.3906 8.6582 74.4043 8.58984 74.4043 8.52344C74.4043 8.37109 74.3477 8.24805 74.2344 8.1543C74.1211 8.06055 73.9922 8.01367 73.8477 8.01367C73.6602 8.01367 73.5039 8.11523 73.3789 8.31836L71.123 11.9277L70.0742 10.6152C70.0039 10.5254 69.9316 10.4609 69.8574 10.4219C69.7832 10.3828 69.7012 10.3633 69.6113 10.3633C69.4629 10.3633 69.3359 10.416 69.2305 10.5215C69.1289 10.627 69.0781 10.7539 69.0781 10.9023C69.0781 11.0469 69.1309 11.1836 69.2363 11.3125L70.5781 12.9473C70.6602 13.0449 70.7461 13.1191 70.8359 13.1699C70.9258 13.2168 71.0273 13.2402 71.1406 13.2402Z" fill="#478524"/>
</svg>
