<svg width="58" height="21" viewBox="0 0 58 21" fill="none" xmlns="http://www.w3.org/2000/svg">
<rect x="0.5" y="1" width="57" height="19" rx="4.5" fill="#C1C8D1" fill-opacity="0.3"/>
<rect x="0.5" y="1" width="57" height="19" rx="4.5" stroke="#C1C8D1"/>
<path d="M8.78409 14.5H5.95881V5.77273H8.87358C9.72869 5.77273 10.4631 5.94744 11.0767 6.29688C11.6903 6.64347 12.1605 7.14205 12.4872 7.79261C12.8168 8.44034 12.9815 9.21733 12.9815 10.1236C12.9815 11.0327 12.8153 11.8139 12.483 12.4673C12.1534 13.1207 11.6761 13.6236 11.0511 13.9759C10.4261 14.3253 9.67045 14.5 8.78409 14.5ZM7.27557 13.3494H8.71165C9.37642 13.3494 9.92898 13.2244 10.3693 12.9744C10.8097 12.7216 11.1392 12.3565 11.358 11.8793C11.5767 11.3991 11.6861 10.8139 11.6861 10.1236C11.6861 9.43892 11.5767 8.85795 11.358 8.38068C11.142 7.90341 10.8196 7.54119 10.3906 7.29403C9.96165 7.04687 9.42898 6.9233 8.79261 6.9233H7.27557V13.3494ZM14.5167 14.5V7.95455H15.7482V8.99432H15.8164C15.9357 8.64205 16.146 8.36506 16.4471 8.16335C16.7511 7.95881 17.0948 7.85653 17.4783 7.85653C17.5579 7.85653 17.6516 7.85937 17.7596 7.86506C17.8704 7.87074 17.957 7.87784 18.0195 7.88636V9.10511C17.9684 9.09091 17.8775 9.07528 17.7468 9.05824C17.6161 9.03835 17.4854 9.02841 17.3548 9.02841C17.0536 9.02841 16.7852 9.09233 16.5494 9.22017C16.3164 9.34517 16.1317 9.51989 15.9954 9.74432C15.859 9.96591 15.7908 10.2187 15.7908 10.5028V14.5H14.5167ZM20.9684 14.6449C20.5536 14.6449 20.1786 14.5682 19.8434 14.4148C19.5082 14.2585 19.2425 14.0327 19.0465 13.7372C18.8533 13.4418 18.7567 13.0795 18.7567 12.6506C18.7567 12.2812 18.8278 11.9773 18.9698 11.7386C19.1119 11.5 19.3036 11.3111 19.5451 11.1719C19.7866 11.0327 20.0565 10.9276 20.3548 10.8565C20.6531 10.7855 20.957 10.7315 21.2667 10.6946C21.6587 10.6491 21.9769 10.6122 22.2212 10.5838C22.4656 10.5526 22.6431 10.5028 22.7539 10.4347C22.8647 10.3665 22.9201 10.2557 22.9201 10.1023V10.0724C22.9201 9.70028 22.815 9.41193 22.6048 9.20739C22.3974 9.00284 22.0877 8.90057 21.6758 8.90057C21.2468 8.90057 20.9087 8.99574 20.6616 9.18608C20.4173 9.37358 20.2482 9.58239 20.1545 9.8125L18.957 9.53977C19.0991 9.14205 19.3065 8.82102 19.5792 8.5767C19.8548 8.32955 20.1715 8.15057 20.5295 8.03977C20.8874 7.92614 21.2638 7.86932 21.6587 7.86932C21.9201 7.86932 22.1971 7.90057 22.4897 7.96307C22.7852 8.02273 23.0607 8.13352 23.3164 8.29545C23.5749 8.45739 23.7866 8.68892 23.9513 8.99006C24.1161 9.28835 24.1985 9.67614 24.1985 10.1534V14.5H22.9542V13.6051H22.9031C22.8207 13.7699 22.6971 13.9318 22.5323 14.0909C22.3675 14.25 22.1559 14.3821 21.8974 14.4872C21.6388 14.5923 21.3292 14.6449 20.9684 14.6449ZM21.2454 13.6222C21.5977 13.6222 21.8988 13.5526 22.1488 13.4134C22.4016 13.2741 22.5934 13.0923 22.7241 12.8679C22.8576 12.6406 22.9244 12.3977 22.9244 12.1392V11.2955C22.8789 11.3409 22.7908 11.3835 22.6602 11.4233C22.5323 11.4602 22.386 11.4929 22.2212 11.5213C22.0565 11.5469 21.896 11.571 21.7397 11.5938C21.5835 11.6136 21.4528 11.6307 21.3477 11.6449C21.1005 11.6761 20.8746 11.7287 20.6701 11.8026C20.4684 11.8764 20.3065 11.983 20.1843 12.1222C20.065 12.2585 20.0053 12.4403 20.0053 12.6676C20.0053 12.983 20.1218 13.2216 20.3548 13.3835C20.5877 13.5426 20.8846 13.6222 21.2454 13.6222ZM29.0107 7.95455V8.97727H25.3118V7.95455H29.0107ZM26.326 14.5V7.19602C26.326 6.78693 26.4155 6.44744 26.5945 6.17756C26.7734 5.90483 27.0107 5.7017 27.3061 5.56818C27.6016 5.43182 27.9226 5.36364 28.2692 5.36364C28.5249 5.36364 28.7436 5.38494 28.9254 5.42756C29.1072 5.46733 29.2422 5.50426 29.3303 5.53835L29.032 6.5696C28.9723 6.55256 28.8956 6.53267 28.8018 6.50994C28.7081 6.48437 28.5945 6.47159 28.4609 6.47159C28.1513 6.47159 27.9297 6.5483 27.7962 6.7017C27.6655 6.85511 27.6001 7.0767 27.6001 7.36648V14.5H26.326ZM33.3807 7.95455V8.97727H29.8054V7.95455H33.3807ZM30.7642 6.38636H32.0384V12.5781C32.0384 12.8253 32.0753 13.0114 32.1491 13.1364C32.223 13.2585 32.3182 13.3423 32.4347 13.3878C32.554 13.4304 32.6832 13.4517 32.8224 13.4517C32.9247 13.4517 33.0142 13.4446 33.0909 13.4304C33.1676 13.4162 33.2273 13.4048 33.2699 13.3963L33.5 14.4489C33.4261 14.4773 33.321 14.5057 33.1847 14.5341C33.0483 14.5653 32.8778 14.5824 32.6733 14.5852C32.3381 14.5909 32.0256 14.5312 31.7358 14.4062C31.446 14.2812 31.2116 14.0881 31.0327 13.8267C30.8537 13.5653 30.7642 13.2372 30.7642 12.8423V6.38636Z" fill="#6E7686"/>
<path d="M45.5996 7.1875C45.7441 7.1875 45.8672 7.23828 45.9688 7.33984C46.0703 7.44141 46.1211 7.56445 46.1211 7.70898V11.7051L45.5059 9.8125L47.4336 12.4199C47.5312 12.5566 47.5742 12.6973 47.5625 12.8418C47.5508 12.9824 47.4844 13.0957 47.3633 13.1816C47.2266 13.2715 47.0879 13.3047 46.9473 13.2812C46.8066 13.2539 46.6797 13.168 46.5664 13.0234L45.2246 11.2539C45.127 11.1211 45.0781 10.9863 45.0781 10.8496V7.70898C45.0781 7.56445 45.1289 7.44141 45.2305 7.33984C45.332 7.23828 45.4551 7.1875 45.5996 7.1875ZM45.8516 16.2578C45.2617 16.2578 44.6895 16.1641 44.1348 15.9766C43.5801 15.793 43.0664 15.5371 42.5938 15.209C42.1211 14.8809 41.7168 14.5 41.3809 14.0664C41.248 13.9062 41.1875 13.7422 41.1992 13.5742C41.2148 13.4023 41.291 13.2676 41.4277 13.1699C41.5684 13.0605 41.7188 13.0234 41.8789 13.0586C42.043 13.0938 42.1855 13.1797 42.3066 13.3164C42.584 13.668 42.9043 13.9746 43.2676 14.2363C43.6348 14.4941 44.0371 14.6934 44.4746 14.834C44.9121 14.9746 45.3711 15.0449 45.8516 15.0449C46.4844 15.0488 47.0742 14.9336 47.6211 14.6992C48.1719 14.4648 48.6543 14.1387 49.0684 13.7207C49.4863 13.3027 49.8125 12.8184 50.0469 12.2676C50.2852 11.7168 50.4043 11.127 50.4043 10.498C50.4043 9.86914 50.2852 9.2793 50.0469 8.72852C49.8125 8.17773 49.4863 7.69531 49.0684 7.28125C48.6543 6.86719 48.1719 6.54297 47.6211 6.30859C47.0742 6.07422 46.4844 5.95703 45.8516 5.95703C45.2227 5.95703 44.6348 6.07422 44.0879 6.30859C43.541 6.53906 43.0586 6.85938 42.6406 7.26953C42.2266 7.67969 41.9004 8.16016 41.6621 8.71094C41.4277 9.25781 41.3086 9.84375 41.3047 10.4688H40.0977C40.1016 9.68359 40.2539 8.94531 40.5547 8.25391C40.8555 7.5625 41.2695 6.95312 41.7969 6.42578C42.3281 5.89844 42.9395 5.48633 43.6309 5.18945C44.3262 4.89258 45.0664 4.74414 45.8516 4.74414C46.6406 4.74414 47.3828 4.89453 48.0781 5.19531C48.7734 5.49219 49.3848 5.90625 49.9121 6.4375C50.4434 6.96875 50.8594 7.58203 51.1602 8.27734C51.4609 8.96875 51.6113 9.70898 51.6113 10.498C51.6113 11.2871 51.4609 12.0293 51.1602 12.7246C50.8594 13.4199 50.4434 14.0312 49.9121 14.5586C49.3848 15.0898 48.7734 15.5059 48.0781 15.8066C47.3828 16.1074 46.6406 16.2578 45.8516 16.2578ZM39.4355 9.34375H42.248C42.3965 9.34375 42.5078 9.37891 42.582 9.44922C42.6562 9.51562 42.6914 9.60156 42.6875 9.70703C42.6836 9.8125 42.6426 9.91797 42.5645 10.0234L41.1758 11.9336C41.0859 12.0625 40.9746 12.127 40.8418 12.127C40.7129 12.127 40.6016 12.0625 40.5078 11.9336L39.1191 10.0234C39.0371 9.91406 38.9941 9.80859 38.9902 9.70703C38.9902 9.60156 39.0273 9.51562 39.1016 9.44922C39.1758 9.37891 39.2871 9.34375 39.4355 9.34375Z" fill="#6E7686"/>
</svg>
