<svg width="76" height="21" viewBox="0 0 76 21" fill="none" xmlns="http://www.w3.org/2000/svg">
<rect x="0.5" y="1" width="75" height="19" rx="4.5" fill="#FFE663" fill-opacity="0.3"/>
<rect x="0.5" y="1" width="75" height="19" rx="4.5" stroke="#FFE663"/>
<path d="M5.95881 14.5V5.77273H9.0696C9.74858 5.77273 10.3111 5.89631 10.7571 6.14347C11.2031 6.39062 11.5369 6.72869 11.7585 7.15767C11.9801 7.58381 12.0909 8.06392 12.0909 8.59801C12.0909 9.13494 11.9787 9.6179 11.7543 10.0469C11.5327 10.473 11.1974 10.8111 10.7486 11.0611C10.3026 11.3082 9.74148 11.4318 9.06534 11.4318H6.92614V10.3153H8.94602C9.375 10.3153 9.72301 10.2415 9.99006 10.0938C10.2571 9.94318 10.4531 9.73864 10.5781 9.48011C10.7031 9.22159 10.7656 8.92756 10.7656 8.59801C10.7656 8.26847 10.7031 7.97585 10.5781 7.72017C10.4531 7.46449 10.2557 7.2642 9.9858 7.11932C9.71875 6.97443 9.36648 6.90199 8.92898 6.90199H7.27557V14.5H5.95881ZM16.2713 14.6321C15.6264 14.6321 15.071 14.4943 14.6051 14.2188C14.142 13.9403 13.7841 13.5497 13.5312 13.0469C13.2812 12.5412 13.1562 11.9489 13.1562 11.2699C13.1562 10.5994 13.2812 10.0085 13.5312 9.49716C13.7841 8.9858 14.1364 8.58665 14.5881 8.29972C15.0426 8.01278 15.5739 7.86932 16.1818 7.86932C16.5511 7.86932 16.9091 7.9304 17.2557 8.05256C17.6023 8.17472 17.9134 8.36648 18.1889 8.62784C18.4645 8.8892 18.6818 9.22869 18.8409 9.64631C19 10.0611 19.0795 10.5653 19.0795 11.1591V11.6108H13.8764V10.6562H17.831C17.831 10.321 17.7628 10.0241 17.6264 9.76562C17.4901 9.50426 17.2983 9.2983 17.0511 9.14773C16.8068 8.99716 16.5199 8.92188 16.1903 8.92188C15.8324 8.92188 15.5199 9.00994 15.2528 9.18608C14.9886 9.35937 14.7841 9.58665 14.6392 9.8679C14.4972 10.1463 14.4261 10.4489 14.4261 10.7756V11.5213C14.4261 11.9588 14.5028 12.331 14.6562 12.6378C14.8125 12.9446 15.0298 13.179 15.3082 13.3409C15.5866 13.5 15.9119 13.5795 16.2841 13.5795C16.5256 13.5795 16.7457 13.5455 16.9446 13.4773C17.1435 13.4062 17.3153 13.3011 17.4602 13.1619C17.6051 13.0227 17.7159 12.8509 17.7926 12.6463L18.9986 12.8636C18.902 13.2187 18.7287 13.5298 18.4787 13.7969C18.2315 14.0611 17.9205 14.267 17.5455 14.4148C17.1733 14.5597 16.7486 14.6321 16.2713 14.6321ZM21.7674 10.6136V14.5H20.4933V7.95455H21.7163V9.01989H21.7972C21.9478 8.6733 22.1836 8.39489 22.5046 8.18466C22.8285 7.97443 23.2362 7.86932 23.7276 7.86932C24.1737 7.86932 24.5643 7.96307 24.8995 8.15057C25.2347 8.33523 25.4947 8.6108 25.6793 8.97727C25.864 9.34375 25.9563 9.79687 25.9563 10.3366V14.5H24.6822V10.4901C24.6822 10.0156 24.5586 9.64489 24.3114 9.37784C24.0643 9.10795 23.7248 8.97301 23.293 8.97301C22.9975 8.97301 22.7347 9.03693 22.5046 9.16477C22.2773 9.29261 22.0969 9.48011 21.9634 9.72727C21.8327 9.97159 21.7674 10.267 21.7674 10.6136ZM30.1154 14.6278C29.587 14.6278 29.1154 14.4929 28.7006 14.223C28.2887 13.9503 27.9648 13.5625 27.729 13.0597C27.4961 12.554 27.3796 11.9474 27.3796 11.2401C27.3796 10.5327 27.4975 9.92756 27.7333 9.42472C27.9719 8.92187 28.2987 8.53693 28.7134 8.26989C29.1282 8.00284 29.5984 7.86932 30.1239 7.86932C30.5302 7.86932 30.8569 7.9375 31.104 8.07386C31.354 8.20739 31.5472 8.36364 31.6836 8.54261C31.8228 8.72159 31.9308 8.87926 32.0075 9.01562H32.0842V5.77273H33.3583V14.5H32.114V13.4815H32.0075C31.9308 13.6207 31.82 13.7798 31.6751 13.9588C31.533 14.1378 31.337 14.294 31.087 14.4276C30.837 14.5611 30.5131 14.6278 30.1154 14.6278ZM30.3967 13.5412C30.7631 13.5412 31.0728 13.4446 31.3256 13.2514C31.5813 13.0554 31.7745 12.7841 31.9052 12.4375C32.0387 12.0909 32.1055 11.6875 32.1055 11.2273C32.1055 10.7727 32.0401 10.375 31.9094 10.0341C31.7788 9.69318 31.587 9.42756 31.3342 9.23722C31.0813 9.04687 30.7688 8.9517 30.3967 8.9517C30.0131 8.9517 29.6935 9.05114 29.4379 9.25C29.1822 9.44886 28.989 9.72017 28.8583 10.0639C28.7305 10.4077 28.6665 10.7955 28.6665 11.2273C28.6665 11.6648 28.7319 12.0582 28.8626 12.4077C28.9933 12.7571 29.1864 13.0341 29.4421 13.2386C29.7006 13.4403 30.0188 13.5412 30.3967 13.5412ZM35.1768 14.5V7.95455H36.451V14.5H35.1768ZM35.8203 6.9446C35.5987 6.9446 35.4084 6.87074 35.2493 6.72301C35.093 6.57244 35.0149 6.39347 35.0149 6.18608C35.0149 5.97585 35.093 5.79687 35.2493 5.64915C35.4084 5.49858 35.5987 5.4233 35.8203 5.4233C36.0419 5.4233 36.2308 5.49858 36.3871 5.64915C36.5462 5.79687 36.6257 5.97585 36.6257 6.18608C36.6257 6.39347 36.5462 6.57244 36.3871 6.72301C36.2308 6.87074 36.0419 6.9446 35.8203 6.9446ZM39.4393 10.6136V14.5H38.1651V7.95455H39.3881V9.01989H39.4691C39.6197 8.6733 39.8555 8.39489 40.1765 8.18466C40.5004 7.97443 40.908 7.86932 41.3995 7.86932C41.8455 7.86932 42.2362 7.96307 42.5714 8.15057C42.9066 8.33523 43.1665 8.6108 43.3512 8.97727C43.5359 9.34375 43.6282 9.79687 43.6282 10.3366V14.5H42.354V10.4901C42.354 10.0156 42.2305 9.64489 41.9833 9.37784C41.7362 9.10795 41.3967 8.97301 40.9648 8.97301C40.6694 8.97301 40.4066 9.03693 40.1765 9.16477C39.9492 9.29261 39.7688 9.48011 39.6353 9.72727C39.5046 9.97159 39.4393 10.267 39.4393 10.6136ZM48.0813 17.0909C47.5614 17.0909 47.114 17.0227 46.739 16.8864C46.3668 16.75 46.0629 16.5696 45.8271 16.3452C45.5913 16.1207 45.4151 15.875 45.2987 15.608L46.3938 15.1562C46.4705 15.2812 46.5728 15.4134 46.7006 15.5526C46.8313 15.6946 47.0075 15.8153 47.229 15.9148C47.4535 16.0142 47.7418 16.0639 48.0941 16.0639C48.5771 16.0639 48.9762 15.946 49.2915 15.7102C49.6069 15.4773 49.7646 15.1051 49.7646 14.5938V13.3068H49.6836C49.6069 13.446 49.4961 13.6009 49.3512 13.7713C49.2092 13.9418 49.0131 14.0895 48.7631 14.2145C48.5131 14.3395 48.1879 14.402 47.7873 14.402C47.2702 14.402 46.8043 14.2812 46.3896 14.0398C45.9776 13.7955 45.6509 13.4361 45.4094 12.9616C45.1708 12.4844 45.0515 11.8977 45.0515 11.2017C45.0515 10.5057 45.1694 9.90909 45.4052 9.41193C45.6438 8.91477 45.9705 8.53409 46.3853 8.26989C46.8001 8.00284 47.2702 7.86932 47.7958 7.86932C48.2021 7.86932 48.5302 7.9375 48.7802 8.07386C49.0302 8.20739 49.2248 8.36364 49.364 8.54261C49.506 8.72159 49.6154 8.87926 49.6921 9.01562H49.7859V7.95455H51.0344V14.6449C51.0344 15.2074 50.9038 15.669 50.6424 16.0298C50.381 16.3906 50.0273 16.6577 49.5813 16.831C49.1381 17.0043 48.6381 17.0909 48.0813 17.0909ZM48.0685 13.3452C48.435 13.3452 48.7447 13.2599 48.9975 13.0895C49.2532 12.9162 49.4464 12.669 49.5771 12.348C49.7106 12.0241 49.7773 11.6364 49.7773 11.1847C49.7773 10.7443 49.712 10.3565 49.5813 10.0213C49.4506 9.68608 49.2589 9.42472 49.006 9.23722C48.7532 9.04687 48.4407 8.9517 48.0685 8.9517C47.685 8.9517 47.3654 9.05114 47.1097 9.25C46.854 9.44602 46.6609 9.71307 46.5302 10.0511C46.4023 10.3892 46.3384 10.767 46.3384 11.1847C46.3384 11.6136 46.4038 11.9901 46.5344 12.3139C46.6651 12.6378 46.8583 12.8906 47.114 13.0724C47.3725 13.2543 47.6907 13.3452 48.0685 13.3452Z" fill="#FF9900"/>
<path d="M63.5996 7.1875C63.7441 7.1875 63.8672 7.23828 63.9688 7.33984C64.0703 7.44141 64.1211 7.56445 64.1211 7.70898V11.7051L63.5059 9.8125L65.4336 12.4199C65.5312 12.5566 65.5742 12.6973 65.5625 12.8418C65.5508 12.9824 65.4844 13.0957 65.3633 13.1816C65.2266 13.2715 65.0879 13.3047 64.9473 13.2812C64.8066 13.2539 64.6797 13.168 64.5664 13.0234L63.2246 11.2539C63.127 11.1211 63.0781 10.9863 63.0781 10.8496V7.70898C63.0781 7.56445 63.1289 7.44141 63.2305 7.33984C63.332 7.23828 63.4551 7.1875 63.5996 7.1875ZM63.8516 16.2578C63.2617 16.2578 62.6895 16.1641 62.1348 15.9766C61.5801 15.793 61.0664 15.5371 60.5938 15.209C60.1211 14.8809 59.7168 14.5 59.3809 14.0664C59.248 13.9062 59.1875 13.7422 59.1992 13.5742C59.2148 13.4023 59.291 13.2676 59.4277 13.1699C59.5684 13.0605 59.7188 13.0234 59.8789 13.0586C60.043 13.0938 60.1855 13.1797 60.3066 13.3164C60.584 13.668 60.9043 13.9746 61.2676 14.2363C61.6348 14.4941 62.0371 14.6934 62.4746 14.834C62.9121 14.9746 63.3711 15.0449 63.8516 15.0449C64.4844 15.0488 65.0742 14.9336 65.6211 14.6992C66.1719 14.4648 66.6543 14.1387 67.0684 13.7207C67.4863 13.3027 67.8125 12.8184 68.0469 12.2676C68.2852 11.7168 68.4043 11.127 68.4043 10.498C68.4043 9.86914 68.2852 9.2793 68.0469 8.72852C67.8125 8.17773 67.4863 7.69531 67.0684 7.28125C66.6543 6.86719 66.1719 6.54297 65.6211 6.30859C65.0742 6.07422 64.4844 5.95703 63.8516 5.95703C63.2227 5.95703 62.6348 6.07422 62.0879 6.30859C61.541 6.53906 61.0586 6.85938 60.6406 7.26953C60.2266 7.67969 59.9004 8.16016 59.6621 8.71094C59.4277 9.25781 59.3086 9.84375 59.3047 10.4688H58.0977C58.1016 9.68359 58.2539 8.94531 58.5547 8.25391C58.8555 7.5625 59.2695 6.95312 59.7969 6.42578C60.3281 5.89844 60.9395 5.48633 61.6309 5.18945C62.3262 4.89258 63.0664 4.74414 63.8516 4.74414C64.6406 4.74414 65.3828 4.89453 66.0781 5.19531C66.7734 5.49219 67.3848 5.90625 67.9121 6.4375C68.4434 6.96875 68.8594 7.58203 69.1602 8.27734C69.4609 8.96875 69.6113 9.70898 69.6113 10.498C69.6113 11.2871 69.4609 12.0293 69.1602 12.7246C68.8594 13.4199 68.4434 14.0312 67.9121 14.5586C67.3848 15.0898 66.7734 15.5059 66.0781 15.8066C65.3828 16.1074 64.6406 16.2578 63.8516 16.2578ZM57.4355 9.34375H60.248C60.3965 9.34375 60.5078 9.37891 60.582 9.44922C60.6562 9.51562 60.6914 9.60156 60.6875 9.70703C60.6836 9.8125 60.6426 9.91797 60.5645 10.0234L59.1758 11.9336C59.0859 12.0625 58.9746 12.127 58.8418 12.127C58.7129 12.127 58.6016 12.0625 58.5078 11.9336L57.1191 10.0234C57.0371 9.91406 56.9941 9.80859 56.9902 9.70703C56.9902 9.60156 57.0273 9.51562 57.1016 9.44922C57.1758 9.37891 57.2871 9.34375 57.4355 9.34375Z" fill="#FF9900"/>
</svg>
